<?xml version="1.0" encoding="utf-8"?>
<!-- Generator: Adobe Illustrator 23.0.2, SVG Export Plug-In . SVG Version: 6.00 Build 0)  -->
<svg version="1.1" id="레이어_1" xmlns="http://www.w3.org/2000/svg" xmlns:xlink="http://www.w3.org/1999/xlink" x="0px"
	 y="0px" viewBox="0 0 283.46 99.07" style="enable-background:new 0 0 283.46 99.07;" xml:space="preserve">
<style type="text/css">
	.st0{fill:#FFFFFF;}
</style>
<g>
	<path class="st0" d="M283.46,0c-4.64,19.17-21.26,29.62-31.03,35.21l-0.42-0.57c4-3.26,17.76-13.41,22.15-30.23L283.46,0z"/>
	<g>
		<path class="st0" d="M41.99,36.83c-0.25,1.75-3.8,26.51-4.13,28.81h7.94c0.25-1.75,3.8-26.51,4.13-28.81H41.99z"/>
		<path class="st0" d="M106.96,36.83c-0.25,1.75-3.8,26.51-4.13,28.81h18.61c0.19-1.27,0.66-4.6,0.89-6.22h-11.28l0.77-5.33h10.23
			c0.18-1.23,0.61-4.23,0.83-5.8h-10.23l0.75-5.25h10.98c0.18-1.27,0.67-4.6,0.89-6.21H106.96z"/>
		<path class="st0" d="M18.54,53.34c0,0,6.64-15.18,7.16-16.51h10c0.01,2.02-1.32,26.78-1.32,28.81h-7.19l1.19-20.17
			c0,0-8.1,18.9-8.63,20.17h-5.68l-2.55-20.17c-0.2,0.91-2.88,14.4-4.35,20.17H0c0.75-2.57,6.22-27.33,6.66-28.81h9.62L18.54,53.34z
			"/>
		<path class="st0" d="M93,59.82c0,0,0.51,4.7,0.7,5.83h7.61c-0.42-2.37-4.58-27.13-4.88-28.81h-9.63
			c-0.56,1.2-11.55,25.98-12.86,28.81h7.74c0.41-0.96,2.36-5.82,2.36-5.82L93,59.82z M86.21,53.87l4.55-10.7l1.48,10.7H86.21z"/>
		<path class="st0" d="M61,42.24h1.77c1.21,0,2.56,0.13,3.4,1.09c0.6,0.69,0.81,1.66,0.63,2.9c0,0-0.23,2.2-1.69,2.89
			c0,0-1,0.65-2.65,0.7h-3.58l6.77,15.83h7.71l-5.83-12.14c3.53-0.66,6.29-1.7,6.98-7.18c0.09-0.69,0.15-1.34,0.15-1.96
			c0-2.03-0.53-3.66-1.59-4.88c-1.91-2.2-5.19-2.66-7.62-2.66H54.56c-0.25,1.74-3.8,26.5-4.13,28.81h7.22
			C57.9,64.04,61,42.24,61,42.24"/>
		<path class="st0" d="M216.85,48.29c0.15-0.03,0.28-0.07,0.43-0.1c-0.15,0.03-0.29,0.07-0.44,0.1H216.85z"/>
		<path class="st0" d="M220.05,47.54c-0.6,0.14-1.21,0.3-1.83,0.43C218.83,47.84,219.45,47.68,220.05,47.54"/>
		<path class="st0" d="M201.38,51.15c0.04,0,0.09-0.01,0.13-0.02C201.48,51.15,201.42,51.15,201.38,51.15"/>
		<path class="st0" d="M221.93,47.06c-0.36,0.09-0.72,0.19-1.08,0.29C221.21,47.25,221.57,47.15,221.93,47.06"/>
		<path class="st0" d="M206.44,50.35L206.44,50.35c-0.07,0.02-0.14,0.03-0.21,0.04C206.3,50.38,206.37,50.37,206.44,50.35"/>
		<path class="st0" d="M204.15,50.74c-0.16,0.02-0.29,0.04-0.45,0.07C203.86,50.78,204,50.76,204.15,50.74"/>
		<path class="st0" d="M232.47,44L232.47,44c-0.81,0.28-1.66,0.53-2.52,0.8C230.81,44.53,231.66,44.27,232.47,44"/>
		<path class="st0" d="M229.54,44.93c-0.36,0.1-0.72,0.21-1.09,0.32C228.82,45.14,229.18,45.03,229.54,44.93"/>
		<path class="st0" d="M228.01,45.38c-1.18,0.35-2.4,0.71-3.67,1.05C225.6,46.09,226.82,45.73,228.01,45.38"/>
		<path class="st0" d="M223.73,46.6c-0.36,0.09-0.73,0.19-1.09,0.29C223,46.78,223.36,46.68,223.73,46.6"/>
		<path class="st0" d="M184.59,52.93c-0.04,0.01-0.11,0.02-0.15,0.02C184.48,52.95,184.54,52.94,184.59,52.93"/>
		<path class="st0" d="M165.59,53.47c-0.16,0-0.31,0-0.48-0.01C165.28,53.47,165.44,53.47,165.59,53.47"/>
		<path class="st0" d="M155.34,53.13h0.05H155.34z"/>
		<path class="st0" d="M179.92,53.21h0.05H179.92z"/>
		<path class="st0" d="M168.29,53.48h0.27H168.29z"/>
		<path class="st0" d="M186.85,52.78c-0.05,0-0.12,0-0.19,0.02C186.73,52.78,186.8,52.78,186.85,52.78"/>
		<path class="st0" d="M188.86,52.61h0.06H188.86z"/>
		<path class="st0" d="M182.29,53.08c-0.05,0.01-0.07,0.01-0.11,0.01C182.22,53.09,182.25,53.09,182.29,53.08"/>
		<path class="st0" d="M229.53,36.83c-0.18,1.2-0.74,5-1.02,6.86c5.61-1.57,12.38-3.81,18.65-6.86H229.53z"/>
		<path class="st0" d="M177.29,49.62c-0.7-0.53-1.51-1.03-2.45-1.45c-0.03-0.02-2.1-1.04-2.1-1.04l-0.02-0.01l-0.04-0.02
			c-0.68-0.39-2.25-1.31-2.25-2.85c0-0.75,0.3-1.4,0.83-1.85c0.65-0.54,1.66-0.74,2.74-0.55c1.36,0.21,2.93,1.1,4.65,2.57
			c0.81-1.57,2.37-4.58,2.94-5.65c-1.97-1.62-3.88-2.49-6.73-2.99c-3.52-0.53-6.92,0.22-9.31,2.03c-2.01,1.54-3.26,3.79-3.59,6.51
			c-0.05,0.47-0.07,0.91-0.07,1.34c0,1.28,0.22,2.4,0.67,3.38c0.17,0.01,0.34,0.03,0.51,0.05
			C166.67,49.35,171.61,49.57,177.29,49.62"/>
		<path class="st0" d="M214.83,43.05h10.97c0.18-1.27,0.66-4.61,0.89-6.21h-18.31c-0.1,0.74-0.81,5.65-1.61,11.22
			c2.53-0.32,5.04-0.69,7.49-1.13L214.83,43.05z"/>
		<path class="st0" d="M232.47,44L232.47,44c-0.81,0.28-1.65,0.53-2.52,0.8c-0.13,0.05-0.27,0.09-0.41,0.14
			c-0.36,0.1-0.71,0.21-1.09,0.33c-0.15,0.04-0.3,0.09-0.45,0.12c-1.19,0.35-2.4,0.7-3.67,1.05c-0.21,0.05-0.4,0.11-0.61,0.16
			c-0.36,0.09-0.73,0.19-1.1,0.28c-0.23,0.06-0.46,0.13-0.7,0.18c-0.36,0.09-0.71,0.19-1.08,0.29c-0.26,0.06-0.54,0.12-0.8,0.19
			c-0.6,0.14-1.21,0.29-1.83,0.44c-0.31,0.07-0.62,0.14-0.94,0.22c-0.15,0.03-0.28,0.07-0.43,0.1h-0.01
			c-3.26,0.73-6.72,1.44-10.39,2.06c-0.07,0.01-0.14,0.02-0.22,0.03c-0.68,0.12-1.38,0.24-2.07,0.35c-0.15,0.02-0.29,0.03-0.45,0.06
			c-0.72,0.13-1.45,0.23-2.19,0.34c-0.05,0.01-0.1,0.02-0.14,0.02c-3.95,0.58-8.1,1.07-12.46,1.45h-0.06
			c-0.66,0.06-1.33,0.12-2.01,0.18c-0.06,0-0.13,0.01-0.2,0.02c-0.69,0.05-1.38,0.1-2.07,0.14c-0.04,0.01-0.1,0.02-0.14,0.02
			c-0.72,0.05-1.43,0.09-2.15,0.13c-0.04,0.01-0.07,0.01-0.11,0.01c-0.73,0.04-1.47,0.08-2.22,0.12h-0.05
			c-3.66,0.18-7.45,0.28-11.36,0.28h-0.27c-0.88-0.01-1.78-0.02-2.69-0.02c-0.15,0-0.31,0-0.48-0.01c-3.17-0.05-6.4-0.16-9.73-0.34
			h-0.05c-5.01-0.26-10.18-0.68-15.52-1.29l6.15-5.77c0,0,3.57,1.07,8.51,1.96c-0.95-5.57-1.77-10.47-1.9-11.18h-9.64
			c-0.55,1.2-11.55,25.98-12.85,28.81h7.73c0.41-0.97,3.01-7.16,3.01-7.16l8.06-0.01c0,0,0.78,6.03,0.96,7.17h7.61
			c-0.16-0.93-0.89-5.28-1.75-10.33c5.43,0.31,10.87,0.36,15.94,0.29c0.26,0.42,0.39,0.88,0.39,1.38c0,0.18-0.01,0.35-0.05,0.54
			c-0.12,0.65-0.45,1.18-0.96,1.54c-1.06,0.74-2.56,0.58-3.61,0.4c-2.46-0.42-4.41-2.29-5.98-3.84c-0.99,1.61-3.07,4.99-3.73,6.09
			c2.9,2.64,6.04,4.26,9.36,4.72c3.36,0.5,6.69-0.25,9.15-2.07c2.16-1.6,3.51-3.92,3.92-6.71c0.14-0.81,0.19-1.57,0.15-2.29
			c5.44-0.23,9.96-0.57,12.86-0.82c0.94,0.69,1.43,1.51,1.43,2.45c0,0.18-0.02,0.35-0.04,0.54c-0.12,0.65-0.46,1.18-0.99,1.54
			c-1.04,0.74-2.55,0.58-3.58,0.4c-2.46-0.42-4.43-2.29-6-3.84c-0.99,1.61-3.05,4.99-3.73,6.09c2.91,2.64,6.04,4.26,9.37,4.72
			c3.36,0.5,6.68-0.25,9.14-2.07c2.16-1.6,3.52-3.92,3.95-6.71c0.27-1.56,0.2-2.96-0.18-4.22c1.24-0.16,2.41-0.35,3.54-0.53
			c-0.86,6.05-1.67,11.7-1.82,12.75h18.62c0.18-1.27,0.65-4.6,0.88-6.22h-11.28l0.76-5.32h10.23c0.17-1.1,0.53-3.63,0.77-5.27
			c1.39-0.44,2.09-0.7,2.09-0.7s3.45-1.04,7.94-2.69c-0.65,4.51-2.63,18.31-2.9,20.21h8.05c0.25-1.69,3.12-21.65,3.12-21.65h5.83
			c0.16-1.24,0.72-5.2,0.99-6.99C246.33,38.69,240.62,41.33,232.47,44"/>
		<path class="st0" d="M197.39,48.17c-0.04-0.02-2.1-1.05-2.1-1.05l-0.03-0.01l-0.02-0.02c-0.69-0.38-2.27-1.3-2.27-2.85
			c0.01-0.75,0.3-1.41,0.84-1.86c0.66-0.54,1.66-0.74,2.73-0.55c1.37,0.21,2.94,1.11,4.66,2.58c0.82-1.57,2.37-4.57,2.94-5.65
			c-1.98-1.63-3.89-2.49-6.73-3c-3.53-0.51-6.92,0.23-9.3,2.04c-2.01,1.53-3.26,3.79-3.6,6.52c-0.05,0.46-0.08,0.91-0.08,1.34
			c0,1.51,0.32,2.8,0.95,3.89c4.29-0.1,8.81-0.31,13.36-0.68C198.32,48.63,197.88,48.38,197.39,48.17"/>
	</g>
	<g>
		<polygon class="st0" points="99.64,98.67 103.44,98.67 106.97,74.29 103.18,74.29 		"/>
		<path class="st0" d="M128.93,83.1h-2.45l1.28-8.8h-3.8l-2.46,16.92h-8.07l0.74-5.12h5.43l1.57-10.79h-9.22l-0.5,3.44h5.43
			l-0.56,3.9h-5.43l-1.4,9.66c0,0,0,0.01,0,0.01c-0.02,0.16-0.07,0.56-0.03,0.81c0.13,0.88,0.69,1.53,1.62,1.53l0,0H121l-0.58,4.01
			h3.8l1.76-12.13h2.46l-1.76,12.13h3.8L134,74.29h-3.8L128.93,83.1z"/>
		<g>
			<path class="st0" d="M209.57,83.1h-2.46l1.28-8.8h-3.8l-2.45,16.92h-8.27l1.81-12.47h5.29l0.5-3.44h-9.09l-2.46,17.01
				c-0.02,0.15-0.07,0.56-0.03,0.82c0.13,0.88,0.69,1.53,1.62,1.53h10.14l-0.58,4.01h3.8l1.76-12.13h2.46l-1.76,12.13h3.8
				l3.54-24.37h-3.8L209.57,83.1z"/>
		</g>
		<g>
			<path class="st0" d="M151.5,74.29l-1.28,8.8h-1.97l0-0.13c0-0.02,0-0.04,0-0.06v-0.04v0c0.01-2.11-0.29-3.85-0.9-5.19
				c-0.85-1.86-2.13-2.8-3.81-2.8c-0.01,0-0.05,0-0.05,0h-0.05c-1.69,0-3.2,0.96-4.47,2.87c-1.29,1.92-2.13,4.57-2.49,7.89
				c-0.38,3.36-0.13,6.02,0.73,7.9c0.85,1.86,2.13,2.8,3.82,2.8h0.05c0,0,0.04,0,0.05,0c1.69,0,3.2-0.96,4.47-2.86
				c1.14-1.7,1.94-4,2.36-6.82l0.02-0.1h0l0,0h1.77l-1.76,12.13h3.79l3.54-24.37H151.5z M144.55,85.61c-0.22,1.98-0.61,3.67-1.16,5
				c-0.55,1.35-1.19,2.04-1.88,2.05h0c-0.71-0.02-1.2-0.71-1.46-2.06c-0.26-1.32-0.27-3-0.05-4.98c0.22-1.98,0.61-3.67,1.16-5
				c0.56-1.35,1.19-2.04,1.88-2.05h0h0c0.71,0.02,1.19,0.71,1.46,2.06C144.75,81.95,144.77,83.62,144.55,85.61"/>
			<polygon class="st0" points="153.58,98.67 157.38,98.67 160.91,74.29 157.12,74.29 			"/>
		</g>
		<g>
			<path class="st0" d="M177.72,90.86L177.72,90.86c-0.05-0.25-0.06-0.54-0.05-0.88c0.02-0.41,0.07-0.78,0.1-0.94h-4.41
				c-0.03,0.26-0.08,0.53-0.14,0.79c-0.08,0.36-0.21,0.72-0.38,1.08c-0.9,1.88-3.3,4.31-9.64,5.22l1.98,2.94
				c0.26-0.04,1.81-0.28,3.69-0.97c1.88-0.7,4.49-2,6.19-4.27l0.06-0.08l0.04,0.09c0.01,0.01,0.45,0.91,1.63,2
				c1.08,1,3.02,2.37,6.1,3.19l2.41-2.7c-0.41-0.11-1.94-0.54-3.53-1.33C179.36,93.81,177.96,92.38,177.72,90.86"/>
			<polygon class="st0" points="180.52,88 182.51,74.29 178.71,74.29 178.12,78.4 174.78,78.4 174.3,81.7 177.64,81.7 176.72,88 			
				"/>
			<polygon class="st0" points="182.31,88 186.11,88 188.09,74.29 184.3,74.29 			"/>
			<path class="st0" d="M166.37,86.77c0.01-0.01,0.03-0.02,0.04-0.03c0.03-0.02,0.05-0.05,0.08-0.07c2.06-1.79,3.5-3.64,3.5-3.64
				s1.17,2.51,2.91,4.52c0.1,0.12,0.15,0.17,0.15,0.17l2.77-1.97c-0.82-0.81-1.46-1.72-1.85-2.36c-0.15-0.24-0.3-0.49-0.45-0.76
				c0,0,0,0,0-0.01c-0.13-0.26-0.26-0.55-0.37-0.84c-0.01-0.03-0.02-0.06-0.03-0.08c0,0,0,0,0,0c-0.09-0.27-0.18-0.54-0.24-0.82
				c0-0.02-0.01-0.04-0.02-0.06c0-0.02-0.01-0.04-0.01-0.06c-0.53-2.31-0.17-4.78-0.02-5.71h-3.96c0,0-0.12,3.27-1.06,5.07
				c-0.67,1.23-1.71,2.62-3.97,4.44c-0.53,0.45-1.07,0.86-1.61,1.22l2.22,2.48C164.44,88.27,165.25,87.73,166.37,86.77"/>
		</g>
		<path class="st0" d="M83.3,92.3c0,0,0,0.01,0,0.01c-0.02,0.15-0.07,0.56-0.03,0.81c0.13,0.87,0.69,1.53,1.62,1.53h0h11.24
			l2.81-19.35H85.77L83.3,92.3z M89.06,78.75h5.58l-1.81,12.47h-5.58L89.06,78.75z"/>
		<g>
			<polygon class="st0" points="215.79,91.26 225.81,91.26 224.74,98.67 228.54,98.67 229.61,91.26 239.57,91.26 240.07,87.82 
				216.29,87.82 			"/>
			<path class="st0" d="M237.81,75.94c-1.76-1.24-4.31-1.88-7.67-1.94c-3.35-0.06-6.1,0.5-8.24,1.68c-1.92,1.06-3.01,2.41-3.27,4.04
				c-0.26,1.63,0.4,3.01,1.97,4.13c1.76,1.25,4.31,1.91,7.66,1.96c3.35,0.06,6.1-0.51,8.24-1.7c1.94-1.06,3.04-2.41,3.3-4.04
				C240.07,78.43,239.4,77.06,237.81,75.94z M235.47,80.01c-0.15,0.87-0.79,1.55-1.93,2.05c-1.21,0.54-2.83,0.8-4.83,0.76
				c-2.03-0.03-3.54-0.34-4.55-0.92c-0.94-0.53-1.34-1.23-1.19-2.11c0.15-0.85,0.78-1.54,1.9-2.05c1.21-0.54,2.83-0.8,4.84-0.76
				c1.99,0.03,3.51,0.34,4.55,0.92C235.21,78.45,235.62,79.15,235.47,80.01z"/>
		</g>
	</g>
</g>
</svg>
